<svg width="300" height="297" viewBox="0 0 300 297" fill="none" xmlns="http://www.w3.org/2000/svg">
<path d="M276.794 50.1837C271.249 46.4714 268.979 40.187 270.853 34.1276L270.853 34.1273C272.778 27.9097 278.367 23.68 284.541 23.6685C290.734 23.657 296.415 27.8947 298.338 34.0438L298.338 34.0452C300.22 40.0346 297.934 46.3609 292.376 50.1515L292.374 50.1527C291.501 50.7513 290.602 51.2586 289.638 51.8023C289.172 52.0655 288.69 52.3373 288.189 52.6321L287.696 52.9221V53.494V132.809V133.421L288.24 133.699C294.33 136.817 298.967 140.811 298.921 148.086L298.921 148.087C298.904 151.643 297.905 154.46 296.142 156.751C294.367 159.057 291.768 160.89 288.459 162.377L287.869 162.642V163.289V242.987V243.556L288.358 243.847C288.693 244.045 289.043 244.247 289.402 244.453C290.298 244.969 291.253 245.519 292.182 246.147L292.186 246.149C297.824 249.923 300.197 256.171 298.42 262.167C296.531 268.54 290.544 272.97 284.214 272.763C277.995 272.556 272.557 268.242 270.747 261.977C269.003 255.931 271.4 249.748 277.101 246.059L277.103 246.058C277.853 245.571 278.622 245.177 279.506 244.725C279.984 244.48 280.495 244.219 281.055 243.916L281.58 243.632V243.036V194.053L279.66 193.661C267.98 221.066 252.03 242.25 231.698 257.218C211.367 272.185 186.599 280.977 157.216 283.511L156.679 283.557L156.422 284.031C153.86 288.769 151.1 291.947 148.135 293.715C145.206 295.462 141.996 295.881 138.383 294.949L138.382 294.948C132.001 293.307 127.42 287.536 127.328 281.064C127.249 274.916 131.445 269.223 137.611 267.253C141.28 266.083 144.402 266.213 147.307 267.66C150.257 269.128 153.1 272.01 156.055 276.587L156.353 277.049L156.903 277.045C220.961 276.535 275.434 222.216 279.776 163.165L279.819 162.58L279.329 162.257C272.571 157.805 269.858 152.532 270.07 147.647C270.283 142.734 273.465 137.895 279.169 134.362L279.675 134.05L279.641 133.456C276.592 79.071 225.482 20.519 157.085 19.3003L156.548 19.2907L156.243 19.7342C153.001 24.4578 150.019 27.3833 146.999 28.837C144.03 30.2659 140.907 30.3269 137.224 29.0621L137.224 29.062C131.145 26.9778 127.042 21.076 127.34 14.9836C127.663 8.42231 132.38 2.79794 138.745 1.37958L138.746 1.37949C142.383 0.567277 145.578 1.06217 148.427 2.82783C151.307 4.61239 153.921 7.74929 156.248 12.3741L156.525 12.9246H157.11C186.617 15.5495 211.366 24.347 231.609 39.1566C251.863 53.9742 267.661 74.8509 279.192 101.712L279.452 102.317H280.024C280.06 102.325 280.11 102.334 280.165 102.342C280.3 102.361 280.623 102.396 280.964 102.253C281.212 102.15 281.369 101.982 281.452 101.878C281.543 101.761 281.608 101.641 281.652 101.54C281.735 101.353 281.802 101.11 281.802 100.861V100.77V100.678V100.587V100.495V100.404V100.312V100.221V100.129V100.038V99.9461V99.8546V99.7631V99.6716V99.5801V99.4886V99.3971V99.3056V99.2141V99.1226V99.0311V98.9396V98.8481V98.7566V98.6651V98.5736V98.4821V98.3906V98.2991V98.2076V98.1161V98.0246V97.9331V97.8416V97.7501V97.6586V97.5671V97.4755V97.384V97.2925V97.201V97.1095V97.018V96.9265V96.835V96.7435V96.652V96.5605V96.469V96.3775V96.286V96.1945V96.103V96.0115V95.92V95.8284V95.7369V95.6454V95.5539V95.4624V95.3709V95.2794V95.1879V95.0963V95.0048V94.9133V94.8218V94.7303V94.6387V94.5472V94.4557V94.3642V94.2727V94.1811V94.0896V93.9981V93.9066V93.815V93.7235V93.632V93.5405V93.4489V93.3574V93.2659V93.1743V93.0828V92.9912V92.8997V92.8082V92.7166V92.6251V92.5336V92.442V92.3505V92.2589V92.1674V92.0758V91.9843V91.8927V91.8012V91.7096V91.6181V91.5265V91.435V91.3434V91.2518V91.1603V91.0687V90.9771V90.8856V90.794V90.7025V90.6109V90.5193V90.4277V90.3362V90.2446V90.153V90.0614V89.9698V89.8783V89.7867V89.6951V89.6035V89.5119V89.4203V89.3287V89.2371V89.1455V89.0539V88.9623V88.8708V88.7791V88.6875V88.5959V88.5043V88.4127V88.3211V88.2295V88.1379V88.0463V87.9546V87.863V87.7714V87.6798V87.5881V87.4965V87.4049V87.3132V87.2216V87.13V87.0383V86.9467V86.855V86.7634V86.6717V86.5801V86.4884V86.3968V86.3051V86.2135V86.1218V86.0301V85.9385V85.8468V85.7551V85.6635V85.5718V85.4801V85.3884V85.2967V85.205V85.1134V85.0217V84.93V84.8383V84.7466V84.6549V84.5632V84.4715V84.3798V84.288V84.1963V84.1046V84.0129V83.9212V83.8295V83.7377V83.646V83.5543V83.4625V83.3708V83.279V83.1873V83.0956V83.0038V82.9121V82.8203V82.7285V82.6368V82.545V82.4532V82.3615V82.2697V82.1779V82.0862V81.9944V81.9026V81.8108V81.719V81.6272V81.5354V81.4436V81.3518V81.26V81.1682V81.0764V80.9846V80.8928V80.8009V80.7091V80.6173V80.5255V80.4336V80.3418V80.2499V80.1581V80.0662V79.9744V79.8825V79.7907V79.6988V79.6069V79.5151V79.4232V79.3313V79.2395V79.1476V79.0557V78.9638V78.8719V78.78V78.6881V78.5962V78.5043V78.4124V78.3205V78.2286V78.1366V78.0447V77.9528V77.8608V77.7689V77.677V77.585V77.4931V77.4011V77.3092V77.2172V77.1253V77.0333V76.9413V76.8493V76.7574V76.6654V76.5734V76.4814V76.3894V76.2974V76.2054V76.1134V76.0214V75.9294V75.8373V75.7453V75.6533V75.5613V75.4692V75.3772V75.2852V75.1931V75.1011V75.009V74.9169V74.8249V74.7328V74.6407V74.5487V74.4566V74.3645V74.2724V74.1803V74.0882V73.9961V73.904V73.8119V73.7198V73.6276V73.5355V73.4434V73.3513V73.2591V73.167V73.0748V72.9827V72.8905V72.7984V72.7062V72.614V72.5218V72.4297V72.3375V72.2453V72.1531V72.0609V71.9687V71.8765V71.7843V71.692V71.5998V71.5076V71.4154V71.3231V71.2309V71.1386V71.0464V70.9541V70.8619V70.7696V70.6773V70.585V70.4928V70.4005V70.3082V70.2159V70.1236V70.0313V69.939V69.8466V69.7543V69.662V69.5697V69.4773V69.385V69.2926V69.2003V69.1079V69.0156V68.9232V68.8308V68.7384V68.6461V68.5537V68.4613V68.3689V68.2765V68.1841V68.0916V67.9992V67.9068V67.8143V67.7219V67.6295V67.537V67.4446V67.3521V67.2596V67.1672V67.0747V66.9822V66.8897V66.7972V66.7047V66.6122V66.5197V66.4272V66.3347V66.2421V66.1496V66.057V65.9645V65.8719V65.7794V65.6868V65.5943V65.5017V65.4091V65.3165V65.2239V65.1313V65.0387V64.9461V64.8535V64.7609V64.6682V64.5756V64.483V64.3903V64.2977V64.205V64.1123V64.0197V63.927V63.8343V63.7416V63.6489V63.5562V63.4635V63.3708V63.2781V63.1853V63.0926V62.9999V62.9071V62.8144V62.7216V62.6289V62.5361V62.4433V62.3505V62.2577V62.1649V62.0721V61.9793V61.8865V61.7937V61.7009V61.608V61.5152V61.4223V61.3295V61.2366V61.1437V61.0509V60.958V60.8651V60.7722V60.6793V60.5864V60.4935V60.4006V60.3076V60.2147V60.1217V60.0288V59.9358V59.8429V59.7499V59.6569V59.5639V59.471V59.378V59.285V59.1919V59.0989V59.0059V58.9129V58.8198V58.7268V58.6337V58.5407V58.4476V58.3545V58.2614V58.1684V58.0753V57.9822V57.889V57.7959V57.7028V57.6097V57.5165V57.4234V57.3302V57.2371V57.1439V57.0507V56.9575V56.8644V56.7712V56.678V56.5847V56.4915V56.3983V56.3051V56.2118V56.1186V56.0253V55.932V55.8388V55.7455V55.6522V55.5589V55.4656V55.3723V55.279V55.1857V55.0923V54.999V54.9056V54.8123V54.7189V54.6255V54.5322V54.4388V54.3454V54.252V54.1586V54.0652V53.9717V53.8783V53.7849V53.6914V53.1153L281.303 52.8263C280.834 52.5545 280.366 52.2926 279.9 52.0318C278.847 51.443 277.804 50.8602 276.794 50.1837Z" fill="black" stroke="white" stroke-width="2"/>
<path d="M247.826 152.553L248.126 153.082C247.285 153.56 246.543 153.99 245.865 154.382C244.613 155.106 243.579 155.705 242.536 156.255C234.754 160.386 226.969 164.508 219.184 168.629C199.212 179.204 179.243 189.776 159.356 200.496C156.706 201.927 154.158 202.782 151.527 203C148.893 203.218 146.236 202.791 143.376 201.739C127.063 195.757 110.671 190.002 94.2755 184.246C89.3803 182.528 84.4848 180.809 79.591 179.084L79.9234 178.141L79.5909 179.084C79.211 178.95 78.8483 178.816 78.4928 178.684C77.8891 178.46 77.3061 178.243 76.6953 178.051C75.7523 177.754 74.8736 177.562 74.0396 177.562C73.671 177.562 73.05 177.765 72.4363 178.159C71.802 178.566 71.4606 178.992 71.3895 179.212L71.3884 179.216C71.3097 179.457 71.3352 179.984 71.5977 180.684C71.8474 181.35 72.233 181.96 72.5912 182.31L72.5922 182.31C72.9841 182.694 73.5513 182.989 74.2901 183.263C74.654 183.398 75.0368 183.52 75.441 183.646L75.5633 183.685C75.9235 183.797 76.3014 183.915 76.6659 184.044L76.6672 184.044C83.7281 186.54 90.7947 189.024 97.8619 191.508C112.862 196.78 127.866 202.054 142.826 207.446L142.827 207.446C149.21 209.751 154.824 209.264 160.861 206.014C181.58 194.857 202.374 183.837 223.164 172.819C232.12 168.073 241.076 163.327 250.025 158.57L250.026 158.57C250.299 158.425 250.57 158.283 250.838 158.143C252.218 157.422 253.513 156.746 254.634 155.857L254.637 155.855C259.858 151.745 259.818 144.54 254.545 140.458L254.543 140.457C253.439 139.598 252.181 138.944 250.838 138.247C250.534 138.089 250.226 137.929 249.914 137.763L249.914 137.763C241.397 133.238 232.873 128.724 224.348 124.211C203.297 113.065 182.243 101.917 161.292 90.5899C154.835 87.1002 148.976 86.7007 142.137 89.1704C121.974 96.4622 101.745 103.554 81.517 110.645C75.2204 112.852 68.924 115.059 62.6297 117.272C61.5507 117.654 60.425 117.97 59.189 118.317C58.5143 118.506 57.8066 118.705 57.0557 118.928L55.7703 119.311V117.97C55.7703 116.864 55.7853 115.843 55.7994 114.876C55.8278 112.937 55.853 111.219 55.7475 109.483C55.5789 106.733 54.7515 104.731 53.4046 103.383C52.0593 102.036 50.0761 101.222 47.3568 101.083L47.356 101.083C44.3129 100.924 41.2609 100.961 38.1885 101.059C35.049 101.159 32.9188 101.959 31.5421 103.351C30.1641 104.745 29.3767 106.899 29.288 110.067L29.288 110.067C29.2223 112.36 29.2393 114.641 29.2576 117.111C29.2667 118.33 29.2761 119.595 29.2761 120.93V121.93H28.2761H28.2608H28.2455H28.2302H28.2149H28.1997H28.1844H28.1692H28.154H28.1388H28.1236H28.1084H28.0932H28.0781H28.0629H28.0478H28.0327H28.0176H28.0025H27.9874H27.9724H27.9573H27.9423H27.9273H27.9123H27.8973H27.8823H27.8674H27.8524H27.8375H27.8225H27.8076H27.7927H27.7778H27.763H27.7481H27.7333H27.7184H27.7036H27.6888H27.674H27.6592H27.6444H27.6297H27.6149H27.6002H27.5855H27.5708H27.5561H27.5414H27.5267H27.5121H27.4974H27.4828H27.4682H27.4536H27.439H27.4244H27.4098H27.3952H27.3807H27.3662H27.3517H27.3371H27.3226H27.3082H27.2937H27.2792H27.2648H27.2503H27.2359H27.2215H27.2071H27.1927H27.1783H27.164H27.1496H27.1353H27.1209H27.1066H27.0923H27.078H27.0637H27.0495H27.0352H27.021H27.0067H26.9925H26.9783H26.9641H26.9499H26.9357H26.9215H26.9074H26.8932H26.8791H26.865H26.8509H26.8368H26.8227H26.8086H26.7945H26.7805H26.7664H26.7524H26.7384H26.7244H26.7104H26.6964H26.6824H26.6685H26.6545H26.6405H26.6266H26.6127H26.5988H26.5849H26.571H26.5571H26.5432H26.5294H26.5155H26.5017H26.4879H26.4741H26.4603H26.4465H26.4327H26.4189H26.4051H26.3914H26.3776H26.3639H26.3502H26.3365H26.3228H26.3091H26.2954H26.2817H26.2681H26.2544H26.2408H26.2271H26.2135H26.1999H26.1863H26.1727H26.1591H26.1456H26.132H26.1185H26.1049H26.0914H26.0779H26.0644H26.0509H26.0374H26.0239H26.0104H25.997H25.9835H25.9701H25.9566H25.9432H25.9298H25.9164H25.903H25.8896H25.8762H25.8629H25.8495H25.8362H25.8228H25.8095H25.7962H25.7829H25.7695H25.7563H25.743H25.7297H25.7164H25.7032H25.6899H25.6767H25.6635H25.6502H25.637H25.6238H25.6106H25.5974H25.5843H25.5711H25.558H25.5448H25.5316H25.5185H25.5054H25.4923H25.4792H25.4661H25.453H25.4399H25.4268H25.4138H25.4007H25.3877H25.3746H25.3616H25.3486H25.3356H25.3226H25.3096H25.2966H25.2836H25.2706H25.2577H25.2447H25.2318H25.2188H25.2059H25.193H25.18H25.1671H25.1542H25.1413H25.1285H25.1156H25.1027H25.0899H25.077H25.0642H25.0513H25.0385H25.0257H25.0129H25H24.9873H24.9745H24.9617H24.9489H24.9361H24.9234H24.9106H24.8979H24.8851H24.8724H24.8597H24.847H24.8343H24.8215H24.8089H24.7962H24.7835H24.7708H24.7581H24.7455H24.7328H24.7202H24.7076H24.6949H24.6823H24.6697H24.6571H24.6445H24.6319H24.6193H24.6067H24.5941H24.5816H24.569H24.5564H24.5439H24.5314H24.5188H24.5063H24.4938H24.4812H24.4688H24.4562H24.4437H24.4313H24.4188H24.4063H24.3938H24.3814H24.3689H24.3564H24.344H24.3316H24.3191H24.3067H24.2943H24.2819H24.2695H24.2571H24.2447H24.2323H24.2199H24.2075H24.1951H24.1828H24.1704H24.1581H24.1457H24.1334H24.121H24.1087H24.0964H24.084H24.0717H24.0594H24.0471H24.0348H24.0225H24.0103H23.998H23.9857H23.9734H23.9612H23.9489H23.9366H23.9244H23.9122H23.8999H23.8877H23.8755H23.8632H23.851H23.8388H23.8266H23.8144H23.8022H23.79H23.7778H23.7657H23.7535H23.7413H23.7291H23.717H23.7048H23.6927H23.6805H23.6684H23.6562H23.6441H23.632H23.6199H23.6077H23.5956H23.5835H23.5714H23.5593H23.5472H23.5351H23.523H23.511H23.4989H23.4868H23.4747H23.4627H23.4506H23.4386H23.4265H23.4145H23.4024H23.3904H23.3784H23.3663H23.3543H23.3423H23.3303H23.3183H23.3062H23.2942H23.2822H23.2702H23.2582H23.2462H23.2343H23.2223H23.2103H23.1983H23.1864H23.1744H23.1624H23.1505H23.1385H23.1266H23.1146H23.1027H23.0907H23.0788H23.0668H23.0549H23.043H23.0311H23.0191H23.0072H22.9953H22.9834H22.9715H22.9596H22.9477H22.9358H22.9239H22.912H22.9001H22.8882H22.8763H22.8645H22.8526H22.8407H22.8288H22.817H22.8051H22.7932H22.7814H22.7695H22.7577H22.7458H22.734H22.7221H22.7103H22.6985H22.6866H22.6748H22.6629H22.6511H22.6393H22.6275H22.6156H22.6038H22.592H22.5802H22.5684H22.5566H22.5448H22.533H22.5211H22.5094H22.4976H22.4857H22.474H22.4622H22.4504H22.4386H22.4268H22.415H22.4032H22.3915H22.3797H22.3679H22.3561H22.3444H22.3326H22.3208H22.3091H22.2973H22.2855H22.2738H22.262H22.2502H22.2385H22.2267H22.215H22.2032H22.1915H22.1797H22.168H22.1562H22.1445H22.1328H22.121H22.1093H22.0975H22.0858H22.0741H22.0623H22.0506H22.0388H22.0271H22.0154H22.0036H21.9919H21.9802H21.9685H21.9567H21.945H21.9333H21.9216H21.9099H21.8981H21.8864H21.8747H21.863H21.8513H21.8395H21.8278H21.8161H21.8044H21.7927H21.781H21.7693H21.7575H21.7458H21.7341H21.7224H21.7107H21.699H21.6873H21.6756H21.6638H21.6521C20.2963 121.93 18.9466 121.922 17.601 121.913C14.4245 121.893 11.2711 121.872 8.11351 121.967L8.11313 121.967C5.54018 122.043 3.89153 122.656 2.83984 123.701C1.78613 124.749 1.15829 126.403 1.01544 128.954C1.00824 129.202 1.01065 129.441 1.01331 129.699C1.01477 129.84 1.01627 129.987 1.01627 130.145C1.01627 133.612 1.01224 137.079 1.00821 140.545C0.998138 149.203 0.988068 157.858 1.04089 166.514C1.065 169.694 1.66229 171.551 2.78986 172.665C3.92332 173.785 5.81874 174.379 9.0265 174.44C9.02681 174.44 9.02713 174.44 9.02744 174.44L9.00861 175.44C11.5705 175.482 14.1323 175.472 16.6942 175.461C17.8329 175.457 18.9716 175.452 20.1102 175.452L247.826 152.553ZM247.826 152.553L248.065 151.309L248.004 151.284L247.557 151.105L247.324 151.237M247.826 152.553L188.004 151.904M53.8839 193.881C56.536 191.414 56.8443 188.206 56.8443 184.827C56.8179 172.491 56.8229 160.162 56.828 147.83C56.83 142.898 56.832 137.965 56.832 133.031V126.37C64.0324 123.837 71.208 121.317 78.3637 118.803C101.07 110.828 123.576 102.923 146.04 94.9033C150.37 93.3614 153.885 94.2002 157.721 96.2478L53.8839 193.881ZM53.8839 193.881C50.023 197.482 34.7397 197.643 31.2119 193.757L53.8839 193.881ZM188.004 151.904C185.993 157.332 181.158 160.181 175.336 159.367C170.18 158.651 166.085 154.149 165.727 148.833C165.369 143.491 169.181 138.508 174.707 137.139C175.148 137.03 175.601 136.981 176.052 136.933C176.421 136.893 176.789 136.853 177.149 136.781C179.431 136.337 181.047 135.067 180.837 132.637C180.628 130.157 178.79 129.121 176.458 129.38C174.25 129.627 171.944 129.923 169.896 130.749C162.224 133.845 157.327 142.024 158.178 149.906C159.066 158.195 165.295 165.251 173.079 166.768C181.787 168.47 189.854 164.819 193.962 157.233C194.545 156.15 195.05 155.022 195.559 153.883C195.804 153.335 196.049 152.786 196.306 152.237H245.579C246.056 151.962 246.571 151.665 247.138 151.343L247.324 151.237M188.004 151.904C188.26 151.209 188.457 150.409 188.653 149.611M188.004 151.904L188.653 149.611M247.324 151.237H196.306H195.669L195.4 151.814C195.128 152.396 194.874 152.963 194.626 153.518C194.126 154.637 193.648 155.707 193.082 156.758C189.192 163.94 181.571 167.409 173.27 165.787L173.27 165.786C165.947 164.359 160.017 157.684 159.172 149.799L159.172 149.798C158.37 142.371 163.003 134.609 170.27 131.677L170.27 131.677C172.174 130.908 174.35 130.622 176.569 130.374C177.573 130.262 178.353 130.444 178.875 130.804C179.37 131.146 179.757 131.732 179.841 132.721L179.841 132.723C179.923 133.676 179.653 134.305 179.213 134.754C178.742 135.235 177.984 135.6 176.958 135.8L176.953 135.801C176.639 135.863 176.317 135.898 175.941 135.939C175.901 135.943 175.861 135.948 175.82 135.952C175.41 135.997 174.94 136.052 174.468 136.168L174.466 136.168C168.51 137.644 164.336 143.034 164.729 148.899L164.729 148.9C165.117 154.67 169.554 159.574 175.197 160.357C181.474 161.235 186.764 158.129 188.942 152.251L188.943 152.25C189.169 151.634 189.348 150.959 189.509 150.315C189.55 150.153 189.589 149.993 189.628 149.836C189.748 149.35 189.862 148.886 189.99 148.441C190.16 147.853 190.336 147.363 190.541 146.984C190.746 146.604 190.941 146.407 191.109 146.312L191.112 146.311C192.034 145.789 193.23 145.56 194.628 145.48C195.56 145.426 196.492 145.44 197.444 145.454C197.944 145.461 198.449 145.468 198.962 145.466L198.962 145.466C210.773 145.411 222.59 145.417 234.843 145.424C238.993 145.427 243.193 145.429 247.46 145.429H250.641L248.032 143.609C247.462 143.211 247.005 142.875 246.599 142.576C246.445 142.463 246.299 142.355 246.156 142.251C245.647 141.88 245.182 141.558 244.671 141.288C235.061 136.185 225.447 131.089 215.834 125.993C196.609 115.802 177.385 105.611 158.192 95.3657L158.192 95.3656C154.203 93.2361 150.386 92.294 145.704 93.9613L145.704 93.9615C123.243 101.98 100.74 109.884 78.0337 117.859C70.8777 120.373 63.7015 122.893 56.5001 125.427L55.832 125.662V126.37V126.383V126.396V126.409V126.422V126.435V126.448V126.46V126.473V126.486V126.499V126.512V126.525V126.538V126.55V126.563V126.576V126.589V126.602V126.615V126.628V126.641V126.654V126.666V126.679V126.692V126.705V126.718V126.731V126.744V126.757V126.77V126.782V126.795V126.808V126.821V126.834V126.847V126.86V126.873V126.886V126.898V126.911V126.924V126.937V126.95V126.963V126.976V126.989V127.002V127.015V127.027V127.04V127.053V127.066V127.079V127.092V127.105V127.118V127.131V127.144V127.157V127.17V127.182V127.195V127.208V127.221V127.234V127.247V127.26V127.273V127.286V127.299V127.312V127.325V127.337V127.35V127.363V127.376V127.389V127.402V127.415V127.428V127.441V127.454V127.467V127.48V127.493V127.506V127.518V127.531V127.544V127.557V127.57V127.583V127.596V127.609V127.622V127.635V127.648V127.661V127.674V127.687V127.7V127.713V127.725V127.738V127.751V127.764V127.777V127.79V127.803V127.816V127.829V127.842V127.855V127.868V127.881V127.894V127.907V127.92V127.933V127.946V127.959V127.972V127.985V127.997V128.01V128.023V128.036V128.049V128.062V128.075V128.088V128.101V128.114V128.127V128.14V128.153V128.166V128.179V128.192V128.205V128.218V128.231V128.244V128.257V128.27V128.283V128.296V128.309V128.322V128.335V128.348V128.361V128.374V128.387V128.4V128.412V128.425V128.438V128.451V128.464V128.477V128.49V128.503V128.516V128.529V128.542V128.555V128.568V128.581V128.594V128.607V128.62V128.633V128.646V128.659V128.672V128.685V128.698V128.711V128.724V128.737V128.75V128.763V128.776V128.789V128.802V128.815V128.828V128.841V128.854V128.867V128.88V128.893V128.906V128.919V128.932V128.945V128.958V128.971V128.984V128.997V129.01V129.023V129.036V129.049V129.062V129.075V129.088V129.101V129.114V129.127V129.14V129.153V129.166V129.179V129.192V129.205V129.218V129.231V129.244V129.257V129.27V129.283V129.296V129.309V129.322V129.335V129.348V129.361V129.374V129.387V129.4V129.413V129.426V129.439V129.452V129.465V129.479V129.492V129.505V129.518V129.531V129.544V129.557V129.57V129.583V129.596V129.609V129.622V129.635V129.648V129.661V129.674V129.687V129.7V129.713V129.726V129.739V129.752V129.765V129.778V129.791V129.804V129.817V129.83V129.843V129.856V129.869V129.882V129.895V129.908V129.921V129.935V129.948V129.961V129.974V129.987V130V130.013V130.026V130.039V130.052V130.065V130.078V130.091V130.104V130.117V130.13V130.143V130.156V130.169V130.182V130.195V130.208V130.221V130.234V130.247V130.261V130.274V130.287V130.3V130.313V130.326V130.339V130.352V130.365V130.378V130.391V130.404V130.417V130.43V130.443V130.456V130.469V130.482V130.495V130.508V130.521V130.535V130.548V130.561V130.574V130.587V130.6V130.613V130.626V130.639V130.652V130.665V130.678V130.691V130.704V130.717V130.73V130.743V130.756V130.77V130.783V130.796V130.809V130.822V130.835V130.848V130.861V130.874V130.887V130.9V130.913V130.926V130.939V130.952V130.965V130.978V130.992V131.005V131.018V131.031V131.044V131.057V131.07V131.083V131.096V131.109V131.122V131.135V131.148V131.161V131.174V131.187V131.201V131.214V131.227V131.24V131.253V131.266V131.279V131.292V131.305V131.318V131.331V131.344V131.357V131.37V131.383V131.397V131.41V131.423V131.436V131.449V131.462V131.475V131.488V131.501V131.514V131.527V131.54V131.553V131.566V131.58V131.593V131.606V131.619V131.632V131.645V131.658V131.671V131.684V131.697V131.71V131.723V131.736V131.75V131.763V131.776V131.789V131.802V131.815V131.828V131.841V131.854V131.867V131.88V131.893V131.906V131.919V131.933V131.946V131.959V131.972V131.985V131.998V132.011V132.024V132.037V132.05V132.063V132.076V132.089V132.103V132.116V132.129V132.142V132.155V132.168V132.181V132.194V132.207V132.22V132.233V132.246V132.259V132.273V132.286V132.299V132.312V132.325V132.338V132.351V132.364V132.377V132.39V132.403V132.416V132.43V132.443V132.456V132.469V132.482V132.495V132.508V132.521V132.534V132.547V132.56V132.573V132.586V132.6V132.613V132.626V132.639V132.652V132.665V132.678V132.691V132.704V132.717V132.73V132.743V132.757V132.77V132.783V132.796V132.809V132.822V132.835V132.848V132.861V132.874V132.887V132.9V132.914V132.927V132.94V132.953V132.966V132.979V132.992V133.005V133.018V133.031C55.832 137.964 55.83 142.896 55.828 147.828C55.8229 160.161 55.8179 172.492 55.8443 184.829L247.324 151.237ZM188.653 149.611C189.092 147.831 189.529 146.054 190.619 145.44L188.653 149.611ZM7.9971 127.726H6.9971V128.726V167.57V168.57H7.9971H27.9061H28.9061V167.57V128.726V127.726H27.9061H7.9971Z" fill="black" stroke="white" stroke-width="2"/>
</svg>
