<?xml version="1.0" encoding="utf-8"?>
<!-- Generator: Adobe Illustrator 25.0.0, SVG Export Plug-In . SVG Version: 6.00 Build 0)  -->
<svg version="1.1" id="katman_1" xmlns="http://www.w3.org/2000/svg" xmlns:xlink="http://www.w3.org/1999/xlink" x="0px" y="0px"
	 viewBox="0 0 560 400" style="enable-background:new 0 0 560 400;" xml:space="preserve">
<style type="text/css">
	.st0{fill:#75B709;}
</style>
<path class="st0" d="M360.4,155.6c-11.3,1.4-20.5,5.6-27.7,12.6c-10.8,10.3-15.3,25.7-12.2,41.4c1.9,9.7,7,18.4,14.5,24.6
	c3.5,2.9,8.3,5.7,12.7,7.4c6.7,2.6,15,3.8,22.5,3.3c10.4-0.7,17.5-3.1,24.7-8.5c2.4-1.8,7.5-6.8,8.5-8.4c2.1-3.3,2.5-7.2,1.3-10.8
	c-1.8-5.1-6.9-8.5-12.3-8.1c-3.5,0.2-5.3,1.1-8.7,4.4c-5.1,4.9-8.6,6.8-13.5,7.6c-4,0.6-8.8,0.1-12.1-1.4
	c-5.4-2.4-9.1-7.6-10.3-14.5c-0.4-2.3-0.5-7.5-0.1-9.8c1.3-8,6.1-13.7,13.2-15.5c8.3-2.2,16.7,0.7,21.9,7.5c1.6,2,2.9,3.2,4.8,4.1
	c3.7,1.8,7.5,1.8,11.1,0c4.3-2.1,6.8-6.2,6.9-11c0-3.3-0.9-5.8-3.2-8.5c-6.6-8.1-13.6-12.9-22.4-15.1c-4-1-6.9-1.4-12.4-1.5
	C364,155.3,362,155.4,360.4,155.6L360.4,155.6z M449.7,155.4c-6.3,0.6-10.6,1.7-14.8,3.6c-7.3,3.5-11.7,8.9-13.5,16.8
	c-0.5,2.2-0.7,8.4-0.4,10.9c1.3,9.8,7.3,16.9,17.8,21.1c2.5,1,5.8,2,11.4,3.3c11.9,2.9,13.4,3.4,14.3,5.2c0.5,1,0.5,2.9,0,3.9
	c-1.1,2.2-3.5,3-9.4,3.1c-8.2,0.3-13.3-1.3-20.5-6.5c-2.7-1.9-3.9-2.5-6.3-2.8c-4.8-0.7-9.7,2.5-11.4,7.3c-0.6,1.7-0.6,5,0,6.8
	c0.4,1.2,1.5,3.1,2.4,4c1.4,1.6,6.1,5,9.3,6.7c9,4.9,21.4,6.9,34.2,5.5c14-1.5,22.9-7.6,26.1-17.8c1-3.2,1.5-6.7,1.5-10.3
	c0-7.1-2.2-12.6-6.9-17.1c-5-4.8-11.4-7.7-22.4-10.2c-10-2.2-12.1-2.8-13.9-4c-1.6-1-2.1-2-2.1-3.9c0-1.2,0.1-1.5,0.6-2.2
	c1-1.5,2.7-2.2,5.9-2.6c6.5-0.8,13.4,1.4,19.4,6.3c2.5,2,4.6,2.8,7.3,2.8c3.5,0,6.5-1.6,8.6-4.5c2.3-3.2,2.6-7.1,0.9-10.7
	c-0.9-1.8-2.2-3.3-4.8-5.5c-6.4-5.4-13.9-8.4-23.5-9.4C457.6,155.3,451.4,155.3,449.7,155.4L449.7,155.4z M252.2,155.5
	c-20.2,2.1-36,15.1-40.6,33.4c-1.6,6.3-1.8,13.3-0.7,19.6c2.8,15.2,12.7,27.1,27.5,33c12.1,4.8,27.2,4.7,39.2-0.2
	c14.5-6,24.2-18,26.8-33c1.1-6.2,0.8-13.3-0.8-19.6c-1.3-5.3-4-10.9-7.4-15.4c-1.7-2.3-6.2-6.7-8.6-8.5c-7-5.2-15.3-8.3-24.8-9.3
	C260.3,155.3,254.6,155.3,252.2,155.5L252.2,155.5z M75.8,155.4c-0.3,0-1.4,0.2-2.5,0.3c-13.7,1.6-25.9,8.8-33,19.5
	c-6.3,9.6-8.7,21.6-6.5,33.6c3.6,19.4,18.9,33.3,39.7,35.8c3.1,0.4,9.7,0.4,12.9,0.1c9.4-1,16.6-3.9,23.2-9.2c2-1.6,5-4.5,6.5-6.3
	c4.9-5.9,3.2-15-3.6-18.6c-3.7-2-7.5-2-11.3-0.1c-1.4,0.7-2.1,1.2-4.1,3.1c-4.1,4-7.3,6-11.3,7.1c-1.8,0.5-2.3,0.5-5.5,0.5
	c-4.3,0-5.9-0.3-9.1-1.9c-4.3-2.1-7.3-5.6-8.9-10.5c-1-3.1-1.4-5.3-1.4-8.9c0-4.4,0.7-7.8,2.3-11c3.2-6.5,9.1-9.9,16.9-9.8
	c6.5,0,12.3,3.1,16.5,8.6c4.6,6.2,13.4,6.8,18.8,1.4c2.6-2.6,3.7-5.2,3.6-8.9c0-4.2-1.2-6.5-6.2-11.7c-5.8-6.2-12.7-10.1-20.4-11.9
	c-4-0.9-6.1-1.1-11.2-1.2C78.6,155.4,76.2,155.4,75.8,155.4z M145.7,156.7c-4.9,0.8-8.6,3.6-10.7,8c-1.3,2.8-1.3,0.8-1.2,36.6
	l0.1,32.3l0.6,1.7c1.5,4.3,4.9,7.5,9.4,8.9c1.9,0.6,5.3,0.6,7.3,0.1c3.8-1,7.3-3.9,9-7.4c1.4-2.8,1.3-2.5,1.5-15.8
	c0.1-11.2,0.2-12.2,0.6-14.4c0.5-2.8,0.9-4.2,1.6-6.1c2.8-7.7,8.2-12.8,15.3-14.3c2-0.4,3.7-0.3,6.5,0.3c3.4,0.7,7,0.8,9,0.1
	c2.1-0.7,4-1.9,5.7-3.7c2.7-2.7,3.9-5.8,3.9-9.6c0-2.5-0.4-4.1-1.5-6.2c-1.5-3-3.4-4.8-6.8-6.5c-3.4-1.7-4.6-1.9-9.2-1.9
	c-4.4,0-6.5,0.3-9.9,1.4c-5,1.6-10,4.5-13.8,8.1c-0.7,0.7-1.3,1.2-1.4,1.2c-0.1,0-0.1-0.3-0.1-0.6c0-1.8-1.6-5.3-3.2-7.3
	c-1.8-2.1-4.5-3.8-7.1-4.5C149.6,156.6,147.1,156.5,145.7,156.7L145.7,156.7z M262,179.1c7.7,1.5,13.1,7.3,14.6,15.9
	c0.9,5.2,0.4,11.3-1.5,15.6c-1.9,4.5-5.4,8-9.6,9.8c-2.5,1-4.3,1.3-7.9,1.3c-2.9,0-3.6-0.1-5.1-0.5c-7.6-2-12.5-7.7-14.1-16.3
	c-0.4-2.4-0.4-7.1,0-9.6c1.7-9.7,7.7-15.6,16.8-16.6C256.9,178.6,260.1,178.8,262,179.1L262,179.1z M518.5,167.3v4.7
	c0,0.7-0.2,1.3-0.5,1.7c-0.3,0.4-0.8,0.6-1.4,0.6c-0.5,0-1-0.2-1.3-0.6c-0.3-0.4-0.5-0.9-0.5-1.7v-5.6c0-0.9,0-1.6-0.1-2.1
	c-0.1-0.5-0.2-0.9-0.5-1.2c-0.3-0.3-0.7-0.5-1.3-0.5c-1.2,0-1.9,0.4-2.3,1.2c-0.4,0.8-0.6,1.9-0.6,3.4v4.8c0,0.7-0.2,1.3-0.5,1.7
	c-0.3,0.4-0.8,0.6-1.3,0.6c-0.5,0-1-0.2-1.3-0.6c-0.3-0.4-0.5-0.9-0.5-1.7v-10.1c0-0.7,0.2-1.2,0.5-1.5c0.3-0.3,0.7-0.5,1.2-0.5
	c0.5,0,0.9,0.2,1.2,0.5c0.3,0.3,0.5,0.8,0.5,1.3v0.3c0.6-0.7,1.3-1.3,2-1.6c0.7-0.3,1.5-0.5,2.4-0.5c0.9,0,1.7,0.2,2.3,0.5
	c0.6,0.4,1.2,0.9,1.6,1.6c0.6-0.7,1.2-1.3,1.9-1.6c0.7-0.4,1.5-0.5,2.3-0.5c1,0,1.8,0.2,2.5,0.6c0.7,0.4,1.2,0.9,1.6,1.6
	c0.3,0.6,0.5,1.6,0.5,3v6.9c0,0.7-0.2,1.3-0.5,1.7c-0.3,0.4-0.8,0.6-1.4,0.6c-0.5,0-1-0.2-1.3-0.6c-0.3-0.4-0.5-0.9-0.5-1.7v-6
	c0-0.8,0-1.4-0.1-1.8c-0.1-0.5-0.2-0.8-0.5-1.2c-0.3-0.3-0.7-0.5-1.3-0.5c-0.5,0-0.9,0.1-1.3,0.4c-0.4,0.3-0.8,0.6-1,1.1
	C518.7,164.7,518.5,165.8,518.5,167.3L518.5,167.3z M501.3,162.7v6.5c0,0.6,0,1,0.1,1.3c0,0.3,0.1,0.5,0.3,0.7s0.4,0.3,0.8,0.3
	c0.2,0,0.5,0,0.9-0.1c0.4-0.1,0.6-0.1,0.8-0.1c0.3,0,0.5,0.1,0.8,0.3c0.2,0.2,0.3,0.5,0.3,0.8c0,0.6-0.3,1-0.9,1.3
	c-0.6,0.3-1.5,0.5-2.7,0.5c-1.1,0-2-0.2-2.5-0.6c-0.6-0.4-1-0.9-1.1-1.5c-0.2-0.7-0.3-1.5-0.3-2.6v-6.8h-0.5c-0.5,0-0.9-0.1-1.2-0.4
	c-0.3-0.2-0.4-0.5-0.4-0.9c0-0.4,0.1-0.7,0.4-0.9c0.3-0.2,0.7-0.4,1.2-0.4h0.4V158c0-0.6,0-1,0-1.3c0-0.3,0.1-0.6,0.3-0.8
	c0.1-0.2,0.3-0.4,0.6-0.6s0.6-0.2,0.9-0.2c0.5,0,0.9,0.2,1.2,0.5c0.2,0.2,0.4,0.5,0.5,0.8c0.1,0.3,0.1,0.8,0.1,1.4v2.4h1.3
	c0.5,0,0.9,0.1,1.2,0.4c0.3,0.2,0.4,0.5,0.4,0.9c0,0.5-0.2,0.8-0.6,1c-0.4,0.2-0.9,0.3-1.6,0.3H501.3z"/>
</svg>
